<mxfile host="65bd71144e">
    <diagram id="MdNkJfHz2E5KTMLJG2zC" name="ページ1">
        <mxGraphModel dx="1949" dy="458" grid="1" gridSize="10" guides="1" tooltips="1" connect="1" arrows="1" fold="1" page="1" pageScale="1" pageWidth="827" pageHeight="1169" math="0" shadow="0">
            <root>
                <mxCell id="0"/>
                <mxCell id="1" parent="0"/>
                <mxCell id="2" value="" style="endArrow=none;html=1;rounded=0;curved=0;labelBackgroundColor=none;" parent="1" edge="1">
                    <mxGeometry width="50" height="50" relative="1" as="geometry">
                        <mxPoint x="40" y="320" as="sourcePoint"/>
                        <mxPoint x="620" y="320" as="targetPoint"/>
                        <Array as="points">
                            <mxPoint x="80" y="320"/>
                            <mxPoint x="80" y="280"/>
                            <mxPoint x="120" y="280"/>
                            <mxPoint x="120" y="320"/>
                            <mxPoint x="160" y="320"/>
                            <mxPoint x="160" y="280"/>
                            <mxPoint x="200" y="280"/>
                            <mxPoint x="200" y="320"/>
                            <mxPoint x="240" y="320"/>
                            <mxPoint x="240" y="280"/>
                            <mxPoint x="280" y="280"/>
                            <mxPoint x="280" y="320"/>
                            <mxPoint x="320" y="320"/>
                            <mxPoint x="320" y="280"/>
                            <mxPoint x="360" y="280"/>
                            <mxPoint x="360" y="320"/>
                            <mxPoint x="400" y="320"/>
                            <mxPoint x="400" y="280"/>
                            <mxPoint x="440" y="280"/>
                            <mxPoint x="440" y="320"/>
                            <mxPoint x="480" y="320"/>
                            <mxPoint x="480" y="280"/>
                            <mxPoint x="520" y="280"/>
                            <mxPoint x="520" y="320"/>
                            <mxPoint x="560" y="320"/>
                            <mxPoint x="560" y="280"/>
                            <mxPoint x="600" y="280"/>
                            <mxPoint x="600" y="320"/>
                        </Array>
                    </mxGeometry>
                </mxCell>
                <mxCell id="3" value="" style="endArrow=none;html=1;rounded=0;curved=0;labelBackgroundColor=none;" parent="1" edge="1">
                    <mxGeometry width="50" height="50" relative="1" as="geometry">
                        <mxPoint x="40" y="400" as="sourcePoint"/>
                        <mxPoint x="620" y="400" as="targetPoint"/>
                        <Array as="points">
                            <mxPoint x="60" y="400"/>
                            <mxPoint x="60" y="360"/>
                            <mxPoint x="100" y="360"/>
                            <mxPoint x="100" y="400"/>
                        </Array>
                    </mxGeometry>
                </mxCell>
                <mxCell id="4" value="" style="endArrow=none;html=1;rounded=0;curved=0;labelBackgroundColor=none;" parent="1" edge="1">
                    <mxGeometry width="50" height="50" relative="1" as="geometry">
                        <mxPoint x="40" y="440" as="sourcePoint"/>
                        <mxPoint x="620" y="480" as="targetPoint"/>
                        <Array as="points">
                            <mxPoint x="190" y="440"/>
                            <mxPoint x="190" y="480"/>
                            <mxPoint x="300" y="480"/>
                            <mxPoint x="300" y="440"/>
                            <mxPoint x="450" y="440"/>
                            <mxPoint x="510" y="440"/>
                            <mxPoint x="510" y="480"/>
                        </Array>
                    </mxGeometry>
                </mxCell>
                <mxCell id="5" value="" style="endArrow=none;dashed=1;html=1;rounded=0;curved=0;labelBackgroundColor=none;" parent="1" edge="1">
                    <mxGeometry width="50" height="50" relative="1" as="geometry">
                        <mxPoint x="40" y="520" as="sourcePoint"/>
                        <mxPoint x="620" y="560" as="targetPoint"/>
                        <Array as="points">
                            <mxPoint x="80" y="520"/>
                            <mxPoint x="90" y="560"/>
                            <mxPoint x="160" y="560"/>
                            <mxPoint x="170" y="520"/>
                            <mxPoint x="240" y="520"/>
                            <mxPoint x="320" y="520"/>
                            <mxPoint x="330" y="560"/>
                            <mxPoint x="400" y="560"/>
                            <mxPoint x="410" y="520"/>
                            <mxPoint x="480" y="520"/>
                            <mxPoint x="490" y="560"/>
                        </Array>
                    </mxGeometry>
                </mxCell>
                <mxCell id="6" value="" style="endArrow=none;dashed=1;html=1;rounded=0;curved=0;labelBackgroundColor=none;" parent="1" edge="1">
                    <mxGeometry width="50" height="50" relative="1" as="geometry">
                        <mxPoint x="40" y="560" as="sourcePoint"/>
                        <mxPoint x="620" y="520" as="targetPoint"/>
                        <Array as="points">
                            <mxPoint x="80" y="560"/>
                            <mxPoint x="90" y="520"/>
                            <mxPoint x="160" y="520"/>
                            <mxPoint x="170" y="560"/>
                            <mxPoint x="240" y="560"/>
                            <mxPoint x="320" y="560"/>
                            <mxPoint x="330" y="520"/>
                            <mxPoint x="400" y="520"/>
                            <mxPoint x="410" y="560"/>
                            <mxPoint x="480" y="560"/>
                            <mxPoint x="490" y="520"/>
                        </Array>
                    </mxGeometry>
                </mxCell>
                <mxCell id="7" value="clock" style="text;html=1;align=center;verticalAlign=middle;whiteSpace=wrap;rounded=0;fontSize=16;fontFamily=Lucida Console;labelBackgroundColor=none;" parent="1" vertex="1">
                    <mxGeometry x="-20" y="280" width="60" height="30" as="geometry"/>
                </mxCell>
                <mxCell id="8" value="reset" style="text;html=1;align=center;verticalAlign=middle;whiteSpace=wrap;rounded=0;fontSize=16;fontFamily=Lucida Console;labelBackgroundColor=none;" parent="1" vertex="1">
                    <mxGeometry x="-20" y="370" width="60" height="30" as="geometry"/>
                </mxCell>
                <mxCell id="9" value="p" style="text;html=1;align=center;verticalAlign=middle;whiteSpace=wrap;rounded=0;fontSize=16;fontFamily=Lucida Console;labelBackgroundColor=none;" parent="1" vertex="1">
                    <mxGeometry x="10" y="450" width="30" height="30" as="geometry"/>
                </mxCell>
                <mxCell id="11" value="" style="endArrow=none;dashed=1;html=1;labelBackgroundColor=none;" parent="1" edge="1">
                    <mxGeometry width="50" height="50" relative="1" as="geometry">
                        <mxPoint x="80" y="510" as="sourcePoint"/>
                        <mxPoint x="80" y="330" as="targetPoint"/>
                    </mxGeometry>
                </mxCell>
                <mxCell id="12" value="" style="endArrow=none;dashed=1;html=1;labelBackgroundColor=none;" parent="1" edge="1">
                    <mxGeometry width="50" height="50" relative="1" as="geometry">
                        <mxPoint x="160" y="510" as="sourcePoint"/>
                        <mxPoint x="160" y="330" as="targetPoint"/>
                    </mxGeometry>
                </mxCell>
                <mxCell id="13" value="" style="endArrow=none;dashed=1;html=1;labelBackgroundColor=none;" parent="1" edge="1">
                    <mxGeometry width="50" height="50" relative="1" as="geometry">
                        <mxPoint x="240" y="510" as="sourcePoint"/>
                        <mxPoint x="240" y="330" as="targetPoint"/>
                    </mxGeometry>
                </mxCell>
                <mxCell id="14" value="" style="endArrow=none;dashed=1;html=1;labelBackgroundColor=none;" parent="1" edge="1">
                    <mxGeometry width="50" height="50" relative="1" as="geometry">
                        <mxPoint x="320" y="510" as="sourcePoint"/>
                        <mxPoint x="320" y="330" as="targetPoint"/>
                    </mxGeometry>
                </mxCell>
                <mxCell id="15" value="" style="endArrow=none;dashed=1;html=1;labelBackgroundColor=none;" parent="1" edge="1">
                    <mxGeometry width="50" height="50" relative="1" as="geometry">
                        <mxPoint x="400" y="510" as="sourcePoint"/>
                        <mxPoint x="400" y="330" as="targetPoint"/>
                    </mxGeometry>
                </mxCell>
                <mxCell id="16" value="" style="endArrow=none;dashed=1;html=1;labelBackgroundColor=none;" parent="1" edge="1">
                    <mxGeometry width="50" height="50" relative="1" as="geometry">
                        <mxPoint x="480" y="510" as="sourcePoint"/>
                        <mxPoint x="480" y="330" as="targetPoint"/>
                    </mxGeometry>
                </mxCell>
                <mxCell id="17" value="" style="endArrow=none;dashed=1;html=1;labelBackgroundColor=none;" parent="1" edge="1">
                    <mxGeometry width="50" height="50" relative="1" as="geometry">
                        <mxPoint x="560" y="510" as="sourcePoint"/>
                        <mxPoint x="560" y="330" as="targetPoint"/>
                    </mxGeometry>
                </mxCell>
                <mxCell id="19" value="SA" style="text;html=1;align=center;verticalAlign=middle;whiteSpace=wrap;rounded=0;fontSize=16;fontFamily=Lucida Console;labelBackgroundColor=none;" parent="1" vertex="1">
                    <mxGeometry x="110" y="527" width="26" height="30" as="geometry"/>
                </mxCell>
                <mxCell id="20" value="SB" style="text;html=1;align=center;verticalAlign=middle;whiteSpace=wrap;rounded=0;fontSize=16;fontFamily=Lucida Console;labelBackgroundColor=none;" parent="1" vertex="1">
                    <mxGeometry x="200" y="527" width="24" height="30" as="geometry"/>
                </mxCell>
                <mxCell id="22" value="" style="endArrow=classic;html=1;labelBackgroundColor=none;startArrow=oval;startFill=1;" parent="1" edge="1">
                    <mxGeometry width="50" height="50" relative="1" as="geometry">
                        <mxPoint x="80" y="360" as="sourcePoint"/>
                        <mxPoint x="90" y="540" as="targetPoint"/>
                        <Array as="points">
                            <mxPoint x="80" y="510"/>
                        </Array>
                    </mxGeometry>
                </mxCell>
                <mxCell id="23" value="reset" style="text;html=1;align=center;verticalAlign=middle;whiteSpace=wrap;rounded=0;fontSize=14;fontFamily=Lucida Console;labelBackgroundColor=none;" parent="1" vertex="1">
                    <mxGeometry x="74" y="394" width="60" height="30" as="geometry"/>
                </mxCell>
                <mxCell id="24" value="" style="endArrow=classic;html=1;labelBackgroundColor=none;startArrow=oval;startFill=1;" parent="1" edge="1">
                    <mxGeometry width="50" height="50" relative="1" as="geometry">
                        <mxPoint x="160" y="440" as="sourcePoint"/>
                        <mxPoint x="170" y="540" as="targetPoint"/>
                        <Array as="points">
                            <mxPoint x="160" y="510"/>
                        </Array>
                    </mxGeometry>
                </mxCell>
                <mxCell id="25" value="1" style="text;html=1;align=center;verticalAlign=middle;whiteSpace=wrap;rounded=0;fontSize=14;fontFamily=Lucida Console;labelBackgroundColor=none;" parent="1" vertex="1">
                    <mxGeometry x="160" y="420" width="20" height="20" as="geometry"/>
                </mxCell>
                <mxCell id="26" value="0" style="text;html=1;align=center;verticalAlign=middle;whiteSpace=wrap;rounded=0;fontSize=14;fontFamily=Lucida Console;labelBackgroundColor=none;" parent="1" vertex="1">
                    <mxGeometry x="240" y="460" width="20" height="20" as="geometry"/>
                </mxCell>
                <mxCell id="27" value="" style="endArrow=classic;html=1;labelBackgroundColor=none;startArrow=oval;startFill=1;" parent="1" edge="1">
                    <mxGeometry width="50" height="50" relative="1" as="geometry">
                        <mxPoint x="240" y="480" as="sourcePoint"/>
                        <mxPoint x="250" y="540" as="targetPoint"/>
                        <Array as="points">
                            <mxPoint x="240" y="510"/>
                        </Array>
                    </mxGeometry>
                </mxCell>
                <mxCell id="28" value="" style="endArrow=classic;html=1;labelBackgroundColor=none;startArrow=oval;startFill=1;" parent="1" edge="1">
                    <mxGeometry width="50" height="50" relative="1" as="geometry">
                        <mxPoint x="320" y="440" as="sourcePoint"/>
                        <mxPoint x="330" y="540" as="targetPoint"/>
                        <Array as="points">
                            <mxPoint x="320" y="510"/>
                        </Array>
                    </mxGeometry>
                </mxCell>
                <mxCell id="29" value="1" style="text;html=1;align=center;verticalAlign=middle;whiteSpace=wrap;rounded=0;fontSize=14;fontFamily=Lucida Console;labelBackgroundColor=none;" parent="1" vertex="1">
                    <mxGeometry x="320" y="420" width="20" height="20" as="geometry"/>
                </mxCell>
                <mxCell id="30" value="" style="endArrow=classic;html=1;labelBackgroundColor=none;startArrow=oval;startFill=1;" parent="1" edge="1">
                    <mxGeometry width="50" height="50" relative="1" as="geometry">
                        <mxPoint x="400" y="440" as="sourcePoint"/>
                        <mxPoint x="410" y="540" as="targetPoint"/>
                        <Array as="points">
                            <mxPoint x="400" y="510"/>
                        </Array>
                    </mxGeometry>
                </mxCell>
                <mxCell id="31" value="1" style="text;html=1;align=center;verticalAlign=middle;whiteSpace=wrap;rounded=0;fontSize=14;fontFamily=Lucida Console;labelBackgroundColor=none;" parent="1" vertex="1">
                    <mxGeometry x="400" y="420" width="22" height="20" as="geometry"/>
                </mxCell>
                <mxCell id="32" value="" style="endArrow=classic;html=1;labelBackgroundColor=none;startArrow=oval;startFill=1;" parent="1" edge="1">
                    <mxGeometry width="50" height="50" relative="1" as="geometry">
                        <mxPoint x="480" y="440" as="sourcePoint"/>
                        <mxPoint x="490" y="540" as="targetPoint"/>
                        <Array as="points">
                            <mxPoint x="480" y="510"/>
                        </Array>
                    </mxGeometry>
                </mxCell>
                <mxCell id="33" value="1" style="text;html=1;align=center;verticalAlign=middle;whiteSpace=wrap;rounded=0;fontSize=14;fontFamily=Lucida Console;labelBackgroundColor=none;" parent="1" vertex="1">
                    <mxGeometry x="480" y="420" width="20" height="20" as="geometry"/>
                </mxCell>
                <mxCell id="34" value="SB" style="text;html=1;align=center;verticalAlign=middle;whiteSpace=wrap;rounded=0;fontSize=16;fontFamily=Lucida Console;labelBackgroundColor=none;" parent="1" vertex="1">
                    <mxGeometry x="422" y="527" width="30" height="30" as="geometry"/>
                </mxCell>
                <mxCell id="35" value="" style="endArrow=classic;html=1;labelBackgroundColor=none;startArrow=oval;startFill=1;" parent="1" edge="1">
                    <mxGeometry width="50" height="50" relative="1" as="geometry">
                        <mxPoint x="560" y="480" as="sourcePoint"/>
                        <mxPoint x="570" y="540" as="targetPoint"/>
                        <Array as="points">
                            <mxPoint x="560" y="510"/>
                        </Array>
                    </mxGeometry>
                </mxCell>
                <mxCell id="36" value="0" style="text;html=1;align=center;verticalAlign=middle;whiteSpace=wrap;rounded=0;fontSize=14;fontFamily=Lucida Console;labelBackgroundColor=none;" parent="1" vertex="1">
                    <mxGeometry x="560" y="460" width="22" height="20" as="geometry"/>
                </mxCell>
                <mxCell id="37" value="SA" style="text;html=1;align=center;verticalAlign=middle;whiteSpace=wrap;rounded=0;fontSize=16;fontFamily=Lucida Console;labelBackgroundColor=none;" parent="1" vertex="1">
                    <mxGeometry x="500" y="527" width="30" height="30" as="geometry"/>
                </mxCell>
                <mxCell id="38" value="" style="endArrow=none;html=1;rounded=0;curved=0;labelBackgroundColor=none;" parent="1" edge="1">
                    <mxGeometry width="50" height="50" relative="1" as="geometry">
                        <mxPoint x="40" y="640" as="sourcePoint"/>
                        <mxPoint x="620" y="640" as="targetPoint"/>
                        <Array as="points">
                            <mxPoint x="164" y="640"/>
                            <mxPoint x="164" y="620"/>
                            <mxPoint x="164" y="600"/>
                            <mxPoint x="190" y="600"/>
                            <mxPoint x="190" y="640"/>
                            <mxPoint x="244" y="640"/>
                            <mxPoint x="406" y="639"/>
                            <mxPoint x="406" y="600"/>
                            <mxPoint x="484" y="600"/>
                            <mxPoint x="484" y="640"/>
                        </Array>
                    </mxGeometry>
                </mxCell>
                <mxCell id="41" value="" style="endArrow=none;dashed=1;html=1;labelBackgroundColor=none;" parent="1" edge="1">
                    <mxGeometry width="50" height="50" relative="1" as="geometry">
                        <mxPoint x="165" y="595" as="sourcePoint"/>
                        <mxPoint x="165" y="566" as="targetPoint"/>
                    </mxGeometry>
                </mxCell>
                <mxCell id="44" value="" style="endArrow=none;dashed=1;html=1;labelBackgroundColor=none;" parent="1" edge="1">
                    <mxGeometry width="50" height="50" relative="1" as="geometry">
                        <mxPoint x="405" y="590" as="sourcePoint"/>
                        <mxPoint x="405" y="561" as="targetPoint"/>
                    </mxGeometry>
                </mxCell>
                <mxCell id="45" value="y" style="text;html=1;align=center;verticalAlign=middle;whiteSpace=wrap;rounded=0;fontSize=16;fontFamily=Lucida Console;labelBackgroundColor=none;" parent="1" vertex="1">
                    <mxGeometry x="10" y="600" width="30" height="30" as="geometry"/>
                </mxCell>
                <mxCell id="46" value="状態" style="text;html=1;align=center;verticalAlign=middle;whiteSpace=wrap;rounded=0;fontSize=16;fontFamily=Lucida Console;labelBackgroundColor=none;" parent="1" vertex="1">
                    <mxGeometry x="-20" y="527" width="50" height="30" as="geometry"/>
                </mxCell>
                <mxCell id="47" value="" style="endArrow=none;dashed=1;html=1;labelBackgroundColor=none;" edge="1" parent="1">
                    <mxGeometry width="50" height="50" relative="1" as="geometry">
                        <mxPoint x="190" y="597" as="sourcePoint"/>
                        <mxPoint x="190" y="480" as="targetPoint"/>
                    </mxGeometry>
                </mxCell>
                <mxCell id="48" value="SA" style="text;html=1;align=center;verticalAlign=middle;whiteSpace=wrap;rounded=0;fontSize=16;fontFamily=Lucida Console;labelBackgroundColor=none;" vertex="1" parent="1">
                    <mxGeometry x="340" y="527" width="24" height="30" as="geometry"/>
                </mxCell>
                <mxCell id="50" value="" style="endArrow=none;dashed=1;html=1;labelBackgroundColor=none;" edge="1" parent="1">
                    <mxGeometry width="50" height="50" relative="1" as="geometry">
                        <mxPoint x="484" y="592" as="sourcePoint"/>
                        <mxPoint x="484" y="563" as="targetPoint"/>
                    </mxGeometry>
                </mxCell>
            </root>
        </mxGraphModel>
    </diagram>
</mxfile>